# xmcd CD database file
#
# Track frame offsets:
#	150
#	20098
#	42999
#	68596
#	82998
#	100956
#	128987
#	149863
#	167966
#	189727
#	209145
#	226106
#	249189
#	280296
#	298103
#
# Disc length: 3982 seconds
#
# Revision: 1
# Processed by: cddbd v1.5.1PL0 Copyright (c) Steve Scherf et al.
# Submitted via: CDex 1.51
#
DISCID=e90f8c0f
DTITLE=Chris Botti - To Love Again
DYEAR=2005
DGENRE=Jazz
TTITLE0=Embraceable You
TTITLE1=What Are You Doing With the Rest of Your Life?
TTITLE2=My One and Only Love
TTITLE3=Let There Be Love
TTITLE4=What's New?
TTITLE5=Good Morning Heartache
TTITLE6=To Love Again
TTITLE7=Are You Lonesome Tonight?
TTITLE8=Lover Man
TTITLE9=I'll Be Seeing You
TTITLE10=Pennies From Heaven
TTITLE11=Here's That Rainy Day
TTITLE12=Smile
TTITLE13=Untitled Data Track
TTITLE14=Untitled Data Track
EXTD=YEAR: 2005
EXTT0=
EXTT1=
EXTT2=
EXTT3=
EXTT4=
EXTT5=
EXTT6=
EXTT7=
EXTT8=
EXTT9=
EXTT10=
EXTT11=
EXTT12=
EXTT13=
EXTT14=
PLAYORDER=
